<?xml version="1.0" encoding="UTF-8" standalone="no"?>
<!-- Created with Inkscape (http://www.inkscape.org/) -->

<svg
   width="210mm"
   height="548mm"
   viewBox="0 0 210 548.00001"
   version="1.1"
   id="svg1"
   sodipodi:docname="arrowLine.svg"
   inkscape:version="1.3.1 (9b9bdc1480, 2023-11-25, custom)"
   xmlns:inkscape="http://www.inkscape.org/namespaces/inkscape"
   xmlns:sodipodi="http://sodipodi.sourceforge.net/DTD/sodipodi-0.dtd"
   xmlns="http://www.w3.org/2000/svg"
   xmlns:svg="http://www.w3.org/2000/svg">
  <sodipodi:namedview
     id="namedview1"
     pagecolor="#505050"
     bordercolor="#ffffff"
     borderopacity="1"
     inkscape:showpageshadow="0"
     inkscape:pageopacity="0"
     inkscape:pagecheckerboard="1"
     inkscape:deskcolor="#d1d1d1"
     inkscape:document-units="mm"
     showgrid="false"
     inkscape:zoom="0.65947751"
     inkscape:cx="521.62507"
     inkscape:cy="24.261631"
     inkscape:window-width="1280"
     inkscape:window-height="922"
     inkscape:window-x="1920"
     inkscape:window-y="27"
     inkscape:window-maximized="1"
     inkscape:current-layer="svg1" />
  <defs
     id="defs1">
    <inkscape:path-effect
       effect="spiro"
       id="path-effect3"
       is_visible="true"
       lpeversion="1" />
    <inkscape:path-effect
       effect="simplify"
       id="path-effect2"
       is_visible="true"
       lpeversion="1.3"
       threshold="31.6129"
       steps="1"
       smooth_angles="360"
       helper_size="0"
       simplify_individual_paths="false"
       simplify_just_coalesce="false" />
    <rect
       x="-412.63611"
       y="-442.46982"
       width="661.13104"
       height="321.74255"
       id="rect1" />
  </defs>
  <g
     id="layer1" />
  <path
     style="fill:none;stroke:#000000;stroke-width:0.348281;stroke-linecap:square;-inkscape-stroke:none;paint-order:fill markers stroke"
     d="m 106.76878,1.6106577 c 0,0 -28.0307,29.1886063 0.9511,140.0220723 4.6646,17.83858 -8.524263,29.7155 -33.969722,44.8559 -32.880933,19.5646 -0.659828,49.43562 14.856712,45.76153 1.582201,-0.37464 3.031027,-3.31254 3.702616,-6.68618 1.021939,-5.13356 1.233196,-8.18217 1.025674,-8.59054 -0.480468,-0.94548 -1.633857,1.42024 -2.80989,4.4911 -1.176033,3.07086 -4.001591,15.56212 -4.129473,17.49936 -0.127877,1.93724 -0.58721,4.79074 1.248051,0.66924 1.835267,-4.12149 3.33451,-7.67661 4.837116,-8.32585 1.502599,-0.64923 1.819102,0.69626 2.393527,2.64373 0.574432,1.94747 0.230303,5.84692 2.502594,5.44524 2.272292,-0.40169 2.502922,-4.65671 3.508635,-5.58313 1.00572,-0.92641 3.14591,-2.34402 3.56456,-3.97511 0.41867,-1.63109 -0.57605,-3.38956 -2.18804,-1.39511 -1.61199,1.99446 -2.300853,5.0863 -1.6491,6.74943 0.65175,1.66313 2.6406,3.87515 5.67343,1.0242 3.03282,-2.85095 5.13984,-7.77681 5.79897,-9.22329 1.94277,-4.26348 3.36872,-6.72418 4.26878,-10.74782 0.33013,-1.47583 0.50214,-4.40447 -1.96404,-1.54114 -2.46618,2.86332 -5.49876,15.31109 -5.63944,17.84638 -0.14066,2.53528 0.59137,6.07239 1.33327,7.52087 2.7518,5.37284 9.49187,-15.44332 10.36837,-18.94293 0.70805,-2.82708 2.62063,-9.39841 0.47312,-7.65479 -2.14751,1.74363 -4.72282,9.92007 -5.6387,13.42653 -3.08225,11.8005 -0.78537,15.80968 2.30271,12.24789 3.5741,-4.12231 5.87061,-8.99274 7.02032,-10.32269 1.14968,-1.32996 3.39525,-2.30257 3.39525,-2.30257 0,0 -2.79868,-1.22959 -3.91008,3.97042 -0.36429,1.70445 -0.54277,4.43941 1.0584,4.8291 0.87693,0.21342 2.97846,-0.64501 3.79167,-3.39382 0.92523,-3.12747 0.50329,-4.94796 -0.0305,-5.65285 -0.71983,-0.95054 -3.57346,-1.36897 -1.48381,-0.3413 8.02787,3.94805 -2.08064,-0.51394 27.62171,-1.2615 29.70235,-0.74755 -31.61726,37.44839 -41.58053,42.71648 -74.503714,39.39391 22.86419,59.6736 14.08751,83.6571 -6.1716,16.86473 -60.500307,-17.25563 -77.360056,23.5062 -16.859749,40.76184 34.936899,67.49751 61.309376,47.84391 15.18541,-11.31665 43.51785,-7.19884 46.84347,18.01077 3.32562,25.20961 -22.59759,33.69347 -45.62345,30.19353 -23.228625,-3.53076 -25.26518,18.1105 -6.91049,33.74148 5.42505,4.61999 14.38558,14.11106 6.37228,18.13982 -4.32633,2.17507 -1.14764,19.74179 -0.93496,21.87239 0.24055,0.93847 -0.53744,-0.43093 -0.81442,-0.66511 -0.50927,-0.68418 -1.12008,-1.29469 -1.56331,-2.02674 -0.59493,-1.30332 -1.0913,-2.68726 -2.01166,-3.77504 -0.77097,-1.10058 -1.65104,-2.15459 -2.16914,-3.42784 0.88522,1.40883 1.88499,2.73547 2.73474,4.17459 0.59315,0.98358 1.223,1.94651 1.80465,2.93467 0.40253,1.05759 0.84118,2.10338 1.34335,3.10688 0.18134,0.51304 0.10885,1.21478 0.43978,1.61505 0.33386,-0.90693 0.68572,-1.81235 1.02451,-2.71214 0.93087,-1.82731 1.75024,-3.72672 2.77184,-5.49654 0.61537,-0.91709 1.23074,-1.83419 1.84611,-2.75127"
     id="path3"
     sodipodi:nodetypes="csssssssssssssssssssssssssscssssszsssssscscccccccccccc" />
</svg>
