<?xml version="1.0" encoding="UTF-8" standalone="no"?>
<!-- Created with Inkscape (http://www.inkscape.org/) -->

<svg
   version="1.1"
   id="svg1"
   width="297"
   height="286"
   viewBox="0 0 297 286"
   sodipodi:docname="hand.svg"
   inkscape:version="1.3.1 (9b9bdc1480, 2023-11-25, custom)"
   xmlns:inkscape="http://www.inkscape.org/namespaces/inkscape"
   xmlns:sodipodi="http://sodipodi.sourceforge.net/DTD/sodipodi-0.dtd"
   xmlns="http://www.w3.org/2000/svg"
   xmlns:svg="http://www.w3.org/2000/svg">
  <defs
     id="defs1">
    <inkscape:path-effect
       effect="spiro"
       id="path-effect4"
       is_visible="true"
       lpeversion="1" />
    <inkscape:path-effect
       effect="simplify"
       id="path-effect3"
       is_visible="true"
       lpeversion="1.3"
       threshold="31.6129"
       steps="1"
       smooth_angles="360"
       helper_size="0"
       simplify_individual_paths="false"
       simplify_just_coalesce="false" />
  </defs>
  <sodipodi:namedview
     id="namedview1"
     pagecolor="#505050"
     bordercolor="#ffffff"
     borderopacity="1"
     inkscape:showpageshadow="0"
     inkscape:pageopacity="0"
     inkscape:pagecheckerboard="1"
     inkscape:deskcolor="#d1d1d1"
     showgrid="false"
     inkscape:zoom="1.4700885"
     inkscape:cx="95.572478"
     inkscape:cy="172.4386"
     inkscape:window-width="1920"
     inkscape:window-height="1005"
     inkscape:window-x="0"
     inkscape:window-y="0"
     inkscape:window-maximized="1"
     inkscape:current-layer="g1" />
  <g
     inkscape:groupmode="layer"
     inkscape:label="Image"
     id="g1">
    <path
       style="fill:#000000"
       d="m 267.02679,187.37215 c -18.7543,2.1475 -21.47922,4.98002 -40.24981,7.0816 -7.59192,-16.49878 -15.25736,-34.62848 -10.71987,-53.05987 3.47184,-27.99245 9.71567,-55.660986 11.9182,-83.781545 2.36092,-15.21718 -15.98509,-28.731032 -29.07284,-19.498038 -11.52029,10.112172 -5.44528,28.395794 -6.83264,41.983137 0.10874,19.109215 3.76249,38.059886 4.60134,57.033546 -13.852,1.91378 -8.07631,-24.63883 -12.59311,-34.67182 -4.32239,-25.785927 -5.82701,-51.874335 -5.75774,-77.983903 3.26994,-18.6034734 -20.7858,-30.9257799 -33.69926,-16.9440584 -12.98761,13.1674964 -7.28676,33.1929204 -5.31067,49.3808224 3.91295,28.037531 15.0711,54.173649 24.58366,80.596399 -12.03615,12.52984 -15.84634,-16.33608 -21.91591,-24.69117 -14.8613,-31.719728 -26.283,-64.973887 -34.02261,-99.118927 -8.35666,-19.248769 -41.46109,-12.0087925 -41.87082,8.771438 0.47828,25.510829 16.654,46.744034 28.12792,68.431378 12.68484,20.054281 25.41262,40.121961 39.48057,59.250101 -8.59307,6.16921 -18.3377,1.81826 -27.45569,-0.72832 -24.17426,-6.31504 -39.87067,-1.66764 -64.325549,-6.73058 -7.19159,14.76369 0.258035,24.91664 -11.309053,36.72127 -9.638309,12.79264 -29.1596904,20.3969 -29.2290811,38.58906 2.9514077,16.45979 23.9226851,20.87803 37.9067851,17.01434 19.834983,-5.79369 22.006194,-25.24631 25.333182,-42.54461 -0.795617,-21.20084 6.004596,-16.13089 15.855656,-16.62091 11.04437,5.20927 33.0296,1.90367 37.53925,15.32281 5.22913,12.97099 8.59947,19.86192 14.88128,32.3535 -12.03433,12.09163 -24.17591,16.90778 -36.37197,28.76828 -8.59334,-7.15592 -15.69356,-19.33414 -26.65188,-22.27704 -14.0742,0.004 -29.730519,4.32111 -38.441879,15.97225 -2.26785,15.77452 23.970649,13.10566 33.468919,20.86439 11.06445,5.21105 21.53138,11.55937 32.13067,17.6352 21.87558,-11.7558 44.52488,-18.73316 66.96897,-29.35615 12.05828,-2.14386 25.83728,-5.26748 38.68635,-8.6924 30.65245,-7.51541 61.87545,-12.26885 92.94701,-17.66115 -2.59485,-15.35612 -4.82437,-26.72894 -7.41921,-42.08506 -1.76054,0.0844 -19.41962,0.59171 -21.18017,0.67603 z m -67.88553,43.61115 c -11.96121,-1.82878 -21.72264,-14.61896 -24.24466,-24.38124 -4.32011,-8.15836 1.41824,-24.57211 11.69297,-25.1218 -4.00673,8.98312 -12.593,20.50852 -3.71141,30.37691 1.51962,7.34198 18.94944,13.38333 16.2631,19.12613 z"
       id="path1"
       sodipodi:nodetypes="ccccccccccccccccccccccccccccccccccccccccc" />
  </g>
</svg>
