<?xml version="1.0" encoding="UTF-8" standalone="no"?>
<!-- Created with Inkscape (http://www.inkscape.org/) -->

<svg
   width="160mm"
   height="39mm"
   viewBox="0 0 160 39"
   version="1.1"
   id="svg1"
   inkscape:version="1.3.1 (9b9bdc1480, 2023-11-25, custom)"
   sodipodi:docname="knot.svg"
   xmlns:inkscape="http://www.inkscape.org/namespaces/inkscape"
   xmlns:sodipodi="http://sodipodi.sourceforge.net/DTD/sodipodi-0.dtd"
   xmlns="http://www.w3.org/2000/svg"
   xmlns:svg="http://www.w3.org/2000/svg">
  <sodipodi:namedview
     id="namedview1"
     pagecolor="#505050"
     bordercolor="#ffffff"
     borderopacity="1"
     inkscape:showpageshadow="0"
     inkscape:pageopacity="0"
     inkscape:pagecheckerboard="1"
     inkscape:deskcolor="#d1d1d1"
     inkscape:document-units="mm"
     inkscape:zoom="1.3594416"
     inkscape:cx="220.67884"
     inkscape:cy="153.37179"
     inkscape:window-width="1497"
     inkscape:window-height="1005"
     inkscape:window-x="0"
     inkscape:window-y="0"
     inkscape:window-maximized="0"
     inkscape:current-layer="layer1" />
  <defs
     id="defs1">
    <inkscape:path-effect
       effect="spiro"
       id="path-effect10"
       is_visible="true"
       lpeversion="1" />
    <inkscape:path-effect
       effect="simplify"
       id="path-effect9"
       is_visible="true"
       lpeversion="1.3"
       threshold="31.6129"
       steps="1"
       smooth_angles="360"
       helper_size="0"
       simplify_individual_paths="false"
       simplify_just_coalesce="false" />
    <inkscape:path-effect
       effect="spiro"
       id="path-effect5"
       is_visible="true"
       lpeversion="1" />
    <inkscape:path-effect
       effect="simplify"
       id="path-effect4"
       is_visible="true"
       lpeversion="1.3"
       threshold="31.6129"
       steps="1"
       smooth_angles="360"
       helper_size="0"
       simplify_individual_paths="false"
       simplify_just_coalesce="false" />
  </defs>
  <g
     inkscape:label="Layer 1"
     inkscape:groupmode="layer"
     id="layer1">
    <path
       style="fill:none;stroke:#000000;stroke-width:1.057;stroke-linecap:square;paint-order:fill markers stroke"
       d="m 158.63505,19.884456 c -14.45911,0.25913 -28.93169,0.24668 -43.39591,0.48705 -6.43749,0.10698 -17.380824,6.56752 -19.310454,0.42511 -1.10345,-3.5125 6.801824,-8.91084 9.197784,-6.11538 4.06842,4.74679 -6.677204,12.00374 -12.651494,13.84545 -7.2534,2.23602 -18.37114,1.33396 -22.158684,-5.24374 -2.83501,-4.92347 0.348511,-12.9573 4.931444,-16.3150481 8.97871,-6.578354 27.372344,-8.9421887 33.389444,0.4218971 2.09372,3.258351 -2.21676,7.651661 -4.69424,10.628671 -3.12045,3.74962 -7.306154,9.19828 -12.090454,8.24576 -3.91051,-0.77855 -2.58961,-9.52664 -6.54737,-10.01081 -3.39646,-0.41551 -4.8516,4.84631 -7.52409,6.98322 -3.5386,2.82945 -6.991928,9.33431 -11.211522,7.68432 -4.763288,-1.86259 1.084675,-12.52712 -3.414838,-14.95869 -4.628679,-2.50138 -15.238964,0.2504 -14.797273,5.49315 0.482819,5.73094 12.762133,7.15379 16.951774,3.21378 2.535101,-2.38405 -4.669256,-9.44255 -1.311625,-10.3573 4.741866,-1.29186 1.364707,11.47716 5.822972,13.54551 6.245642,2.89758 16.653612,0.12045 19.756692,-6.02568 2.39601,-4.74567 -0.16009,-13.7326637 -5.31371,-15.0374278 -4.66385,-1.1807614 -8.67179,5.3203978 -10.70493,9.6806778 -2.626832,5.63353 3.96181,14.51237 -0.69034,18.63479 -4.513267,3.99935 -14.886409,3.63744 -18.027741,-1.51003 -2.840785,-4.65498 5.706658,-9.69591 6.240467,-15.12306 C 61.554762,13.659526 63.10188,4.3656034 58.263345,4.2315028 53.066044,4.0874637 51.971896,14.741126 54.39397,19.341806 c 3.425412,6.5065 13.738157,9.90566 20.714866,7.58327 3.83729,-1.27735 4.66227,-6.62881 6.62057,-10.16737 1.59098,-2.87483 0.93151,-9.6406781 4.14259,-8.9443734 3.05944,0.6634268 2.13652,7.0464834 0.0625,9.3914334 -6.78907,7.67592 -20.296672,3.15759 -30.536563,3.5524 -7.64189,0.29464 -15.27932,-0.74237 -22.92549,-0.88855 -10.369752,-0.19825 -20.743317,-0.0223 -31.1149379,0.0158"
       id="path1-7"
       sodipodi:nodetypes="caaaaaaaaaaaaaaaaaaaaaaaaaaaaaaac" />
    <path
       style="fill:none;stroke:#000000;stroke-width:1.057;stroke-linecap:square;paint-order:fill markers stroke"
       d="m 158.63509,19.735337 c -14.45911,0.25913 -52.97783,-0.39467 -79.464712,-0.1238 -0.82679,0.008 -2.23209,0.84342 -2.4799,0.0546 -0.1417,-0.45108 0.87351,-1.14435 1.1812,-0.78535 0.52248,0.60959 -0.8575,1.54154 -1.62473,1.77806 -0.9315,0.28716 -2.35926,0.17131 -2.84567,-0.67341 -0.36407,-0.63228 0.0448,-1.664 0.63331,-2.09521 1.15307,-0.84481 3.51522,-1.14838 4.28795,0.0542 0.26888,0.41844 -0.28468,0.98264 -0.60285,1.36495 -0.40073,0.48154 -0.93827,1.18127 -1.55268,1.05894 -0.5022,-0.1 -0.33256,-1.22343 -0.84083,-1.28561 -0.43618,-0.0534 -0.62305,0.62237 -0.96626,0.8968 -0.45443,0.36336 -0.89792,1.19873 -1.43981,0.98684 -0.61171,-0.2392 0.1393,-1.60876 -0.43854,-1.92103 -0.59442,-0.32123 -1.957021,0.0322 -1.900298,0.70544 0.062,0.73598 1.638938,0.91871 2.176988,0.41272 0.32556,-0.30616 -0.59964,-1.21263 -0.16844,-1.3301 0.60896,-0.16591 0.17525,1.47392 0.74779,1.73954 0.80208,0.37211 2.1387,0.0155 2.5372,-0.77383 0.3077,-0.60945 -0.0206,-1.76357 -0.6824,-1.93114 -0.59894,-0.15163 -1.11365,0.68326 -1.37475,1.24321 -0.33734,0.72347 0.50879,1.86371 -0.0887,2.39312 -0.57961,0.51361 -1.91175,0.46713 -2.31516,-0.19392 -0.364825,-0.5978 0.73286,-1.24517 0.80141,-1.94213 0.0609,-0.61863 0.25953,-1.81217 -0.36184,-1.8294 -0.667449,-0.0185 -0.807964,1.34967 -0.49692,1.9405 0.4399,0.83558 1.76429,1.27211 2.66025,0.97386 0.4928,-0.16404 0.59874,-0.85129 0.85023,-1.30572 0.20432,-0.36919 0.11963,-1.23807 0.532,-1.14865 0.3929,0.0852 0.27438,0.90492 0.008,1.20606 -0.87187,0.98576 -2.60655,0.40551 -3.92158,0.45621 -0.981385,0.0378 -1.96218,-0.0965 -2.944139,-0.11411 -22.391054,-0.40236 -56.812121,0.15024 -67.1837415,0.18834"
       id="path1-7-9"
       sodipodi:nodetypes="caaaaaaaaaaaaaaaaaaaaaaaaaaaaaaac" />
  </g>
</svg>
