<?xml version="1.0" encoding="UTF-8" standalone="no"?>
<!-- Created with Inkscape (http://www.inkscape.org/) -->

<svg
   version="1.1"
   id="svg1"
   width="200"
   height="65.11628"
   viewBox="0 0 200 65.11628"
   xml:space="preserve"
   xmlns="http://www.w3.org/2000/svg"
   xmlns:svg="http://www.w3.org/2000/svg"><defs
     id="defs1" /><g
     id="g1"><path
       style="fill:#000000;stroke-width:0.168829"
       d="m 45.188026,61.073952 c -7.20173,-2.860841 -4.17962,-9.466195 6.91676,-15.117793 2.27949,-1.160985 2.46038,-1.393375 3.56486,-4.579642 0.63524,-1.83256 0.45374,-2.07654 -0.74965,-1.00776 -4.12234,3.66122 -6.67915,-2.29093 -4.21518,-9.81274 0.77188,-2.35633 0.82884,-2.63239 0.59203,-2.8692 -1.33767,-1.33767 -4.64004,4.6447 -4.68266,8.48281 -0.0404,3.63629 -1.80447,4.47956 -4.08809,1.95417 -1.02998,-1.13902 -1.02451,-1.13809 -2.19967,-0.37506 -3.85901,2.50567 -8.1294,1.02313 -9.56272,-3.31986 -0.29751,-0.90148 -0.40274,-0.8886 -0.77371,0.0947 -1.93492,5.12863 -7.8141,7.10453 -14.43684,4.85199 -2.39005,-0.81291 -3.44382,-0.35317 -3.88508,1.69499 -0.52453,2.434694 -2.0046805,1.9375 -4.4530205,-1.49581 -0.82242,-1.15329 -0.82242,-1.15329 -0.61468,-2.3636 0.31106,-1.81226 2.37405,-10.31988 3.5394905,-14.59662 1.19338,-4.37926 1.6039,-6.33371 1.86921,-8.8991 0.41799,-4.0416904 0.47143,-4.3410404 0.84087,-4.7101104 0.49354,-0.49304 1.56655,-0.42413 3.44767,0.22143 3.45611,1.1860604 3.94997,1.9439604 2.555,3.9210704 -3.76272,5.33296 -4.2498,8.08049 -1.43251,8.08049 3.22953,0 6.06454,-4.15344 5.87102,-8.60138 -0.36452,-8.3780504 -13.1486,-8.8872504 -12.93892,-0.51537 0.0713,2.84539 -0.8938705,3.12106 -3.6639905,1.04651 C -0.44205447,7.8181966 16.815436,0.45639656 24.931976,5.3755366 c 6.48767,3.93193 6.77525,11.3719004 0.63439,16.4120104 -1.57323,1.29122 -1.56702,1.32945 0.47268,2.9119 2.00546,1.5559 3.07577,2.69644 3.67403,3.91512 0.53664,1.09317 0.61791,1.09828 0.86828,0.0546 0.38453,-1.6029 1.44512,-2.71368 2.59107,-2.71368 0.49482,0 0.95731,-0.39966 0.95731,-0.82726 0,-1.81916 4.1799,-4.62579 5.70636,-3.83158 3.52063,1.83179 1.94419,8.10368 -2.65094,10.54684 -2.21275,1.17648 -2.34318,2.90034 -0.29449,3.89209 3.32407,1.60916 5.53325,-1.76699 6.60971,-10.10117 0.4349,-3.36705 1.04309,-3.91383 3.38063,-3.03924 1.20739,0.45174 1.31391,0.69075 1.13521,2.54723 -0.14111,1.46611 -0.14111,1.46611 1.18897,0.19535 4.8641,-4.64712 8.10299,-2.00553 6.45001,5.26053 -1.47163,6.46892 -1.54916,7.17523 -0.78765,7.17523 1.03066,0 1.44072,-1.22431 1.80182,-5.37965 0.49954,-5.74859 0.99086,-6.51756 4.13533,-6.47224 3.05833,0.0441 3.04446,0.0173 1.79157,3.4571 -4.02517,11.05101 -4.37481,16.239744 -0.65471,9.71609 0.94302,-1.6537 1.80002,-4.31393 2.22779,-6.9153 1.06093,-6.45177 4.82292,-9.36406 7.99656,-6.19042 0.98716,0.98716 0.96329,0.9859 0.96329,0.0508 0,-1.56145 0.75637,-1.73415 2.89477,-0.66095 2.09761,1.05272 2.15158,1.32436 1.00348,5.0505 -1.54229,5.00555 -1.60722,7.51289 -0.19453,7.51289 1.62693,0 2.95919,-4.09631 3.19622,-9.82746 0.13543,-3.27438 -0.0395,-3.0731 2.73141,-3.14358 2.59331,-0.066 2.6052,-0.0564 1.95143,1.57673 -0.69487,1.73575 -0.54265,2.16483 0.29669,0.83628 2.60713,-4.12667 7.36701,-4.10285 7.36701,0.0369 0,0.62746 0.25664,0.46344 1.07982,-0.69016 2.10452,-2.94921 5.54392,-3.69011 6.691144,-1.44137 0.81176,1.59116 0.57013,4.02718 -0.855154,8.62151 -1.42903,4.60643 -1.08722,5.41831 1.257714,2.98738 2.10503,-2.18222 2.37451,-2.94991 2.39705,-6.82848 0.027,-4.64816 -0.0404,-4.5503 2.46688,-3.5834 2.60741,1.00552 2.74543,1.15491 2.41725,2.61642 -1.20531,5.36786 -1.42312,7.48329 -0.83138,8.07503 1.24985,1.24985 2.8043,-3.74876 3.09365,-9.94814 0.17187,-3.6823 0.14488,-3.63808 2.22012,-3.63808 2.8622,0 3.52477,0.96134 2.29228,3.32598 -0.7677,1.47289 -0.16975,1.36562 0.96869,-0.17379 4.62946,-6.25996 8.76171,-2.07146 6.38445,6.47134 -1.24939,4.48974 -0.70363,6.62196 0.89109,3.4814 0.67532,-1.32993 0.67532,-1.32993 0.70309,-6.49991 0.0434,-8.08529 1.20391,-12.33277 4.50901,-16.50338 5.90248,-7.4481904 18.72366,-7.9526804 20.26983,-0.79757 0.16055,0.74299 0.53375,1.0151 1.68047,1.22527 2.08769,0.38264 2.03171,0.89426 -0.90699,8.28885 -2.11829,5.33023 -2.11875,5.33701 -0.23923,3.55164 5.18122,-4.92164 8.07269,-2.09173 6.03117,5.90278 -1.32516,5.1893 -1.20382,6.26424 0.50904,4.50945 1.56273,-1.601 2.45444,-3.67594 2.97676,-6.92667 0.43695,-2.7194 0.60696,-2.85039 2.74812,-2.11733 2.2656,0.77566 2.46479,1.3932 1.16172,3.60157 -1.59265,2.6991 -1.69878,5.75376 -0.20742,5.96954 0.92561,0.13392 1.3797,-0.77832 2.38047,-4.78226 1.61879,-6.47647 6.38549,-10.32423 9.43485,-7.61597 1.00698,0.89434 0.95745,0.88093 1.62371,0.43969 1.19786,-0.79332 1.25083,0.13861 0.25544,4.49441 -0.63695,2.7873 -0.89461,3.07762 -2.38764,2.69033 -2.06889,-0.53666 -2.68203,-2.41358 -1.57149,-4.81059 0.53677,-1.15854 0.45642,-1.48037 -0.27514,-1.10207 -2.14267,1.10802 -2.74157,8.84911 -0.79202,10.23731 2.69751,1.92079 4.80037,-0.10909 6.28326,-6.06522 1.6904,-6.78958 3.94875,-16.15575 4.15883,-17.24809 0.52255,-2.71707 2.79545,-2.84378 5.63371,-0.31408 1.22005,1.08741 1.20383,1.17038 -0.60947,3.11633 -1.99169,2.13741 -2.44566,2.86367 -3.7461,5.99301 -1.83907,4.42548 -1.8384,4.39777 -0.0761,3.1334 4.387,-3.14752 7.05512,-1.98797 7.05512,3.06612 0,2.24618 -0.17572,2.48281 -2.38193,3.20746 -3.77655,1.24044 -3.95504,3.32187 -0.44452,5.1836 2.51443,1.33347 3.95371,0.92516 5.1262,-1.45426 1.41173,-2.86495 3.40804,-3.68674 3.23778,-1.33284 -0.55055,7.61122 -10.278,9.269097 -13.94422,2.37656 -0.44436,-0.8354 -0.80672,-1.33162 -0.93614,-1.28196 -0.40523,0.1555 -1.11755,1.48467 -1.64644,3.0722 -0.79042,2.37257 -1.41152,2.74874 -2.82372,1.71019 -0.71087,-0.52278 -0.71087,-0.52278 -2.017,-0.0422 -2.83445,1.0429 -4.83718,0.62999 -7.03521,-1.45045 -1.51612,-1.43501 -1.47325,-1.4314 -2.81194,-0.2369 -2.73243,2.43809 -4.10545,2.52913 -6.13647,0.40688 -0.6591,-0.68871 -0.91767,-0.65767 -2.16271,0.25962 -5.63634,4.152602 -7.66799,0.33534 -4.67379,-8.78159 0.9211,-2.80466 0.95228,-2.97005 0.55978,-2.97005 -1.10778,0 -3.71121,5.28815 -4.7187,9.58475 -0.70828,3.02052 -1.00721,3.43931 -2.27042,3.18067 -0.27738,-0.0568 -0.71325,-0.14683 -0.9686,-0.20009 -0.30912,-0.0645 -0.90713,0.0807 -1.78933,0.43437 -5.76787,2.312287 -12.88688,0.49215 -16.09004,-4.11379 -0.33666,-0.4841 -0.33666,-0.4841 -0.70308,0.52083 -1.31712,3.61233 -4.3321,5.617562 -6.61112,4.39698 -2.25346,-1.2069 -2.28569,-4.94025 -0.0955,-11.06547 0.8557,-2.39313 0.6501,-3.04287 -0.56025,-1.77053 -1.59248,1.67405 -3.68467,7.19173 -4.16488,10.98394 -0.27524,2.17358 -2.08794,2.62957 -3.76932,0.94819 -0.76944,-0.76945 -1.01289,-0.79308 -1.54648,-0.15015 -1.19695,1.44224 -3.55651,1.21835 -5.22404,-0.49568 -0.96197,-0.98878 -1.16433,-0.97291 -1.93913,0.15206 -4.695584,6.817772 -8.577394,0.0893 -5.392954,-9.34779 0.84958,-2.51773 0.82285,-2.77283 -0.23405,-2.23364 -1.51147,0.77109 -2.72067,2.91813 -3.75008,6.65859 -0.82583,3.00075 -1.17447,3.29582 -2.87754,2.43546 -1.79657,-0.9076 -1.91818,-2.02337 -0.58583,-5.37516 1.00275,-2.52262 1.16943,-3.5586 0.61985,-3.85273 -1.44686,-0.77433 -4.69,5.7233 -5.17468,10.36748 -0.16552,1.58598 -0.22817,1.74923 -0.78103,2.03513 -0.7126,0.3685 -1.64039,0.1863 -2.70727,-0.53166 -1.05319,-0.70875 -0.95371,-0.71524 -1.75688,0.11471 -2.36234,2.441094 -6.31162,1.46138 -6.32573,-1.56925 -0.005,-1.12284 -0.2589,-1.14674 -1.17543,-0.11076 -1.69135,1.91178 -3.45309,1.98881 -5.16643,0.22591 -0.90996,-0.93628 -0.90195,-0.94043 -1.65405,0.85625 -0.94144,2.24897 -2.9339,4.74717 -4.80149,6.020223 -0.25885,0.176448 -0.47734,0.601025 -0.64622,1.255804 -2.51002,9.731357 -8.75529,16.730261 -13.31316,14.919678 z m 2.71023,-5.502356 c 2.71423,-1.801599 7.03529,-7.517954 6.2651,-8.288137 -0.39394,-0.393942 -4.43445,2.411134 -6.24434,4.335065 -3.06703,3.260268 -3.08133,5.984567 -0.0208,3.953072 z M 139.7216,36.758587 c 1.25594,-0.48068 1.78327,-0.98688 1.78327,-1.71178 0,-0.301 0.53971,-1.88089 1.19936,-3.51087 2.34971,-5.8061 2.88312,-7.6076 3.61441,-12.20698 0.0884,-0.55594 -0.11548,-0.5869 -0.77451,-0.11763 -4.2708,3.04108 -7.44363,2.39004 -5.39195,-1.10638 4.74025,-8.07821 -0.13642,-10.9899004 -5.33489,-3.18527 -8.01421,12.03199 -4.96375,25.61569 4.90431,21.83891 z M 21.313256,35.673277 c 5.96719,-4.65032 3.2644,-11.91291 -4.43331,-11.9126 -1.6855,6e-5 -2.09409,0.57715 -3.01283,4.25533 -0.28517,1.14168 -0.71605,2.78088 -0.9575,3.64267 -0.50975,1.81934 -0.49814,1.84574 1.37373,3.12355 2.04553,1.39636 3.32755,1.60804 4.8054,0.79344 1.08152,-0.59614 1.0282,-0.58683 1.0282,-0.17958 0,0.97739 0.22957,1.03058 1.19631,0.27719 z m 48.76163,0.14574 c 1.51898,-1.27814 2.79278,-6.28736 1.98415,-7.8027 -1.20081,-2.25026 -2.99012,-0.006 -3.48972,4.377 -0.32932,2.88913 0.3382,4.40798 1.50557,3.4257 z m 111.944424,-4.33439 c 1.60332,-1.554 3.09471,-4.98803 2.2989,-5.29341 -0.39162,-0.15028 -1.25379,0.40465 -1.80714,1.16316 -2.02602,2.77718 -2.40829,5.98782 -0.49176,4.13025 z M 36.631346,29.627517 c 1.6991,-2.47851 2.16138,-4.74735 0.90331,-4.43343 -0.65175,0.16263 -0.94928,0.48937 -1.43172,1.57226 -1.19148,2.67441 -0.79929,4.79792 0.52841,2.86117 z m 123.981904,-5.36545 c -1.9187,-1.16979 -1.55923,-6.07271 0.44523,-6.07271 0.84923,0 2.93928,1.63335 3.51523,2.74711 0.92159,1.78215 -2.19694,4.40078 -3.96046,3.3256 z m -56.24736,-0.12175 c -2.68491,-1.34895 -1.16568,-4.75362 2.12644,-4.76545 1.64714,-0.006 2.24056,0.69002 1.896,2.22355 -0.46017,2.04807 -2.47328,3.32022 -4.02244,2.5419 z m -44.159084,-0.35929 c -3.216,-1.46083 -2.02433,-5.47249 1.6256,-5.47249 3.23097,0 4.42125,2.04716 2.37704,4.08823 -1.46961,1.46736 -2.80386,1.92879 -4.00264,1.38426 z"
       id="path5" /></g></svg>
