<?xml version="1.0" encoding="UTF-8" standalone="no"?>
<svg
   version="1.1"
   id="svg1"
   width="200"
   height="65.11628"
   viewBox="0 0 200 65.11628"
   xml:space="preserve"
   xmlns="http://www.w3.org/2000/svg"
   xmlns:svg="http://www.w3.org/2000/svg"><defs
     id="defs1" /><g
     id="g1"><path
       style="fill:#000000;stroke-width:0.178706"
       d="m 17.21127,61.152848 c -1.121071,-0.640881 -6.733641,-5.239435 -7.081281,-5.801935 -0.0976,-0.157921 -0.0778,-0.262555 1.85758,-9.831256 3.00189,-14.841472 3.72377,-18.087167 6.12095,-27.520744 2.088343,-8.2181639 1.91521,-8.0429409 6.614916,-6.694943 6.191755,1.775962 7.437532,3.142893 5.980901,6.562554 -3.486004,8.183894 -4.079542,12.176192 -1.763026,11.858678 5.785342,-0.792969 11.292994,-10.497958 9.200968,-16.21291 -3.667406,-10.0184809 -22.931639,-6.8343459 -25.522609,4.218562 -0.2937,1.252984 -0.28695,2.669866 0.0292,6.118321 0.18141,1.978625 -0.26488,2.225259 -2.53532,1.401132 C 0.51452862,21.766053 5.3349986,7.5583291 17.061053,4.7733961 c 10.776477,-2.559407 22.574764,-1.115946 27.032803,3.307329 6.948325,6.8941459 5.878146,16.4261259 -2.564685,22.8431529 -2.017393,1.533333 -2.017393,1.533333 0.381845,3.323509 3.977568,2.96783 5.382092,4.470819 6.519536,6.97657 0.499987,1.101417 0.499987,1.101417 0.699709,0.236131 0.709284,-3.072796 2.000219,-4.692898 3.744821,-4.699666 1.13312,-0.0044 1.55149,-0.327842 1.691667,-1.307803 0.222488,-1.555356 2.977476,-4.365458 5.585444,-5.697189 2.25727,-1.152656 4.842095,0.536124 5.544,3.622147 1.088802,4.78714 -1.669616,9.751485 -6.799698,12.237471 -1.784543,0.864766 -1.972289,1.023988 -2.218081,1.880995 -0.779088,2.71649 3.058284,5.214349 5.863275,3.816569 3.335228,-1.662021 5.004844,-6.3242 6.201013,-17.315517 0.313237,-2.878214 2.384797,-3.560428 5.802408,-1.910873 0.839384,0.405137 0.936511,0.928685 0.652297,3.515783 -0.129528,1.179163 -0.221204,2.163338 -0.203709,2.187054 0.01752,0.02371 0.878378,-0.861725 1.913105,-1.967641 6.044743,-6.460725 12.004137,-3.261708 10.076868,5.409292 -0.141998,0.638874 -0.577238,2.5689 -0.967193,4.288947 -0.675995,2.981722 -1.134313,5.465765 -1.368348,7.416305 -0.107205,0.893531 -0.107205,0.893531 0.979527,-0.268059 2.284544,-2.441914 3.924221,-7.126637 3.54986,-10.142314 -1.158291,-9.33065 1.88678,-20.288885 7.396568,-26.617863 9.222085,-10.5932289 26.742065,-10.6386919 29.221025,-0.07582 0.34231,1.458574 0.53851,1.58715 2.99,1.959459 2.55613,0.388202 2.3941,1.620296 -1.55493,11.823451 -3.60804,9.32214 -3.62146,9.434358 -0.75785,6.341981 2.20502,-2.381186 3.5484,-3.136689 5.81026,-3.267626 4.8379,-0.280062 5.7263,3.176278 3.20687,12.476434 -1.69024,6.239276 -1.88792,8.760735 -0.6218,7.931144 1.13256,-0.742081 2.16178,-3.6415 3.38747,-9.542855 1.67398,-8.059673 1.98971,-8.446809 5.82023,-7.136395 3.39457,1.161278 3.4356,1.240166 2.68956,5.170628 -1.26253,6.651533 -1.459,11.258487 -0.48016,11.258487 1.25793,0 2.29867,-2.415277 3.4003,-7.891169 0.59609,-2.962961 1.19644,-4.825685 1.96856,-6.107914 3.07958,-5.114121 9.37166,-8.080244 11.74398,-5.536189 0.32829,0.352052 0.77417,0.83041 0.99085,1.063021 0.49828,0.534914 0.96205,0.5357 1.60277,0.0027 1.87511,-1.559828 1.98163,-0.819436 0.75465,5.24528 -1.12966,5.583653 -1.40932,6.173165 -2.86228,6.033555 -3.99672,-0.384035 -5.33818,-3.66683 -3.28763,-8.045491 0.74747,-1.596139 0.74322,-1.562187 0.19552,-1.562187 -3.10162,0 -5.05919,11.960429 -2.50554,15.308439 1.47648,1.935769 4.7385,1.881373 6.60207,-0.110094 1.92762,-2.059904 1.55562,-1.022101 3.87844,-10.820044 4.71028,-19.868603 5.54346,-23.477511 5.7721,-25.001517 0.52193,-3.479006 3.99569,-3.419527 8.15375,0.139613 2.05587,1.759746 2.03018,2.002382 -0.49131,4.640165 -3.55795,3.722031 -3.90613,4.31981 -6.61756,11.361373 -1.97472,5.128328 -1.96706,4.953765 -0.15176,3.45878 6.63153,-5.461347 11.26983,-3.897674 11.25179,3.793231 -0.01,4.160902 -0.0713,4.25506 -3.47932,5.324455 -5.50012,1.725864 -6.02082,4.828266 -1.29138,7.694246 4.08965,2.478282 7.00785,1.718357 8.18186,-2.130635 C 191.1868,46.125526 195,44.238506 195,47.27873 c 0,3.917166 -4.24824,9.535781 -8.13113,10.754037 -5.97944,1.876045 -10.28809,-0.742606 -13.52555,-8.220373 -0.55737,-1.287389 -2.32299,1.682072 -3.2723,5.503418 -0.68088,2.740832 -2.31225,3.167941 -4.41709,1.156441 -0.48502,-0.463515 -0.48502,-0.463515 -1.519,-0.0029 -4.95368,2.206736 -8.55032,1.495732 -11.93254,-2.358885 -1.57997,-1.80064 -1.57997,-1.80064 -3.56118,0.121743 -3.97268,3.854705 -5.74668,4.011815 -8.92824,0.790707 -1.40713,-1.424617 -1.40713,-1.424617 -3.25995,0.139637 -8.19221,6.916313 -11.76405,0.207582 -7.116,-13.365458 1.40267,-4.095997 1.4754,-4.40342 1.07795,-4.555938 -1.71629,-0.658602 -6.25675,9.141556 -7.51987,16.230915 -0.62143,3.487861 -1.52842,4.183852 -4.0427,3.102236 -0.88922,-0.382531 -0.88922,-0.382531 -2.19487,0.25444 -9.11081,4.444772 -20.708854,1.176003 -25.440325,-7.170052 -0.580247,-1.023521 -0.597977,-1.022376 -0.937419,0.06055 -1.659474,5.294205 -7.132011,9.432276 -10.141565,7.668563 -3.416703,-2.002326 -3.544889,-7.10406 -0.393138,-15.647309 1.59258,-4.316913 1.654241,-4.620034 0.939816,-4.620034 -1.829609,0 -6.356148,9.451736 -7.635843,15.944177 -0.644059,3.267624 -0.94087,3.715193 -2.461446,3.711751 -1.447036,-0.0033 -3.038773,-1.05712 -4.232638,-2.802307 -0.634157,-0.926998 -0.951162,-0.910988 -2.339386,0.118143 -5.584531,4.139978 -12.018793,1.836027 -14.573092,-5.218258 -0.37698,-1.041135 -0.37698,-1.041135 -0.675811,-0.09312 -2.510591,7.964524 -13.277259,11.562833 -23.316541,7.792579 -3.62257,-1.360456 -5.257605,-0.484285 -5.764396,3.088948 -0.28336,1.998002 -0.917961,2.380247 -2.474457,1.490468 z m 94.67486,-8.341199 c 2.78787,-0.859085 3.76832,-1.617918 3.76832,-2.916541 0,-1.157617 0.16838,-1.675581 1.97418,-6.073159 2.78559,-6.783603 4.31383,-12.08688 4.98827,-17.31023 0.24667,-1.910304 0.28545,-1.858574 -0.80602,-1.07511 -3.62127,2.599363 -10.08796,4.103121 -10.08796,2.345847 0,-0.537688 1.03582,-2.686922 2.05208,-4.25791 4.57325,-7.069525 3.55502,-13.5667139 -1.71533,-10.945261 -9.84395,4.896339 -17.228914,31.11522 -10.70658,38.011622 2.33643,2.470443 6.72207,3.395091 10.53304,2.220742 z M 35.166822,51.503581 c 5.921053,-4.516215 5.446589,-13.336829 -0.85829,-15.956044 -7.776146,-3.230422 -9.586009,-2.365034 -11.574778,5.534511 -0.577326,2.293253 -1.217417,4.645542 -1.422391,5.227309 -0.456309,1.295139 -0.355501,1.508485 1.28277,2.714512 3.933963,2.896018 7.739763,3.482537 10.317796,1.59009 1.089963,-0.800112 1.073824,-0.805463 1.073824,0.356234 0,1.151064 0.233176,1.25637 1.181069,0.533388 z m 140.288168,-6.91804 c 1.89947,-1.75087 4.27116,-6.529302 3.92509,-7.908174 -0.26439,-1.053412 -1.78782,-0.362606 -3.01456,1.366968 -2.93698,4.140816 -3.61857,9.037394 -0.91053,6.541206 z M 57.634096,42.609471 c 0.776247,-1.635832 1.693384,-6.876144 1.17351,-6.705172 -0.98022,0.322359 -2.79507,5.621428 -2.329167,6.800736 0.270008,0.683423 0.807072,0.639011 1.155657,-0.09556 z m 86.661964,-8.998249 c -3.44716,-1.699529 -3.05684,-9.693794 0.46878,-9.601349 1.80405,0.0473 5.3799,3.503769 5.3799,5.20028 0,2.501319 -3.84041,5.391189 -5.84868,4.401069 z"
       id="path3" /></g></svg>
