<?xml version="1.0" encoding="UTF-8" standalone="no"?>
<svg
   width="45mm"
   height="45mm"
   viewBox="0 0 45 45"
   version="1.1"
   id="svg1"
   xmlns="http://www.w3.org/2000/svg"
   xmlns:svg="http://www.w3.org/2000/svg">
  <defs
     id="defs1" />
  <g
     id="layer1">
    <path
       style="fill:#000000;fill-opacity:1;stroke:none;stroke-width:0.121498;stroke-dasharray:none"
       d="m 44.474568,44.260003 c -0.03148,0.08712 -0.14126,0.192495 -0.227382,0.218289 -0.05485,0.01652 -1.475916,0.02171 -5.920991,0.02171 h -5.848692 l -0.09771,-0.05104 c -0.07909,-0.04126 -0.107456,-0.06972 -0.148756,-0.148759 l -0.05102,-0.09768 v -5.848687 c 0,-4.428735 0.005,-5.866149 0.02156,-5.920627 0.02769,-0.09219 0.139367,-0.20395 0.231595,-0.231597 0.05448,-0.01627 1.491909,-0.0215 5.920645,-0.0215 h 5.848694 l 0.09768,0.05095 c 0.0791,0.0414 0.107438,0.06968 0.148769,0.148769 l 0.05104,0.09764 -9.39e-4,5.859978 c -9.48e-4,4.59718 -0.0068,5.873462 -0.02396,5.922537 z M 42.715174,34.053452 c -0.01271,-0.02327 -0.04771,-0.05832 -0.07724,-0.07774 -0.0528,-0.03476 -0.133516,-0.0355 -4.294263,-0.0355 -4.661828,-1.19e-4 -4.314805,-0.009 -4.375858,0.109284 -0.02454,0.04757 -0.02777,0.539612 -0.02767,4.294266 1.18e-4,4.160747 7.92e-4,4.241491 0.03549,4.294252 0.01956,0.02953 0.05456,0.06434 0.07783,0.07724 0.06248,0.03461 8.510527,0.03461 8.573027,0 0.02337,-0.01281 0.05828,-0.04762 0.07773,-0.07724 0.03481,-0.0528 0.0354,-0.132977 0.03491,-4.297922 -4.2e-4,-3.416792 -0.0049,-4.252406 -0.02396,-4.286503 z m -1.760596,6.686557 c -0.03148,0.08702 -0.141269,0.192487 -0.227392,0.218283 -0.103615,0.03103 -4.670452,0.03113 -4.774058,1.03e-4 -0.0923,-0.02766 -0.203964,-0.139364 -0.231596,-0.23158 -0.01584,-0.05354 -0.02151,-0.669218 -0.02151,-2.400639 v -2.328684 l 0.05104,-0.0977 c 0.04126,-0.07909 0.06962,-0.107434 0.148749,-0.148754 l 0.09768,-0.05101 2.339988,3.64e-4 c 2.241252,3.68e-4 2.343088,0.0017 2.413331,0.03449 0.09631,0.04468 0.152338,0.100257 0.194177,0.19237 0.03276,0.07224 0.03422,0.169952 0.03315,2.412747 -5.67e-4,1.80517 -0.0068,2.351734 -0.02366,2.400045 z M 40.099981,30.419976 h -4.399999 v -0.879997 -0.88001 h -0.88 -0.87999 v 0.88001 0.879997 H 32.17998 30.419981 v -0.879997 -0.88001 h 1.759999 1.760012 V 26.899981 25.139976 H 33.059979 32.17998 v -1.759993 -1.760002 h 0.879999 0.880013 v 0.879996 0.880006 h 0.87999 0.88 v -0.880006 -0.879996 h 2.639999 2.64 v -0.879998 -0.880007 h -2.64 -2.639999 V 18.97998 18.099986 h 0.88 0.879999 V 17.21999 16.339984 h -3.519989 -3.520009 v 3.519991 3.520009 H 28.659984 26.899981 V 22.499976 21.61998 h -0.879997 -0.880001 v 0.879996 0.880008 h -0.879997 -0.879999 v 0.879997 0.879995 h 3.519994 3.520001 v 0.880008 0.879997 h -0.879997 -0.880001 v 1.759987 1.760007 h -0.880003 -0.88 v 2.639997 2.640002 H 26.019984 25.139983 V 33.93997 32.179963 h -0.879997 -0.879999 v 1.760007 1.760005 h -1.760004 -1.759997 v 1.759992 1.759991 h 0.879997 0.880001 V 38.33996 37.459967 h 1.760004 1.759995 v 0.879993 0.879998 h 1.759998 1.760003 V 38.33996 37.459967 h 0.879999 0.879998 v 1.75999 1.759997 H 27.77998 25.139981 v 0.879998 0.879999 h 2.639999 2.640001 v 0.88 0.879999 h -4.399998 -4.399999 v -0.879999 -0.88 h -0.880001 -0.879997 v 0.88 0.879999 H 17.219984 14.57999 v -4.399996 -4.39998 h 0.879993 0.880008 V 34.819976 33.93997 H 15.459983 14.57999 v -4.399991 -4.400003 h 0.879993 0.880008 v 0.880007 0.879998 h 1.759994 1.760001 v -0.879998 -0.880007 h -0.880002 -0.879999 v -1.759993 -1.760002 h 0.879999 0.880002 v 0.879996 0.880006 h 1.759998 1.760003 v -0.880006 -0.879996 h -0.880002 -0.880001 v -0.879998 -0.880007 h 0.880001 0.880002 V 18.97998 18.099986 h -0.880003 -0.88 V 17.21999 16.339984 h -0.880001 -0.879997 v 1.760002 1.759989 H 18.979984 18.099986 V 18.979979 18.099986 H 17.219984 16.33999 v 2.639996 2.640002 H 13.699984 11.059987 V 22.499976 21.61998 h -0.879998 -0.88 v 0.879996 0.880008 H 8.4199882 7.5399932 v 0.879997 0.879995 h 2.6399958 2.64 v 0.880008 0.879997 h -2.64 -2.6399958 v 1.759987 1.760007 H 6.6599923 5.7799944 V 29.53998 28.659969 H 4.8999984 4.0199995 v 0.880011 0.879996 H 3.1400006 2.2599968 V 29.53998 28.659969 H 1.3799969 0.50000098 V 27.779976 26.899982 H 2.2599968 4.0199995 V 26.019985 25.139977 H 3.1400006 2.2599968 v -2.64 -2.640001 H 1.3799969 0.50000098 V 18.97998 18.099986 H 2.2599968 4.0199995 v 2.639997 2.640001 H 5.7799934 7.5399922 V 22.499976 21.61998 H 6.6599923 5.7799934 v -0.879997 -0.880007 h 0.8799989 0.8800009 v 0.880007 0.879997 H 8.4199872 9.299989 V 19.859976 18.099987 H 7.5399932 5.7799944 V 16.339985 14.579992 H 7.5399932 9.29999 v 0.879995 0.879998 h 0.88 0.879997 v -0.879998 -0.879995 h 1.760003 1.76 v -0.880008 -0.879997 h 1.760001 1.759995 V 11.939991 11.059995 H 16.33999 14.579989 V 10.179987 9.2999933 h 0.879993 0.880008 V 8.4199825 7.5399892 H 15.459982 14.579989 V 6.659994 5.7799969 h 0.879993 0.880008 V 6.659994 7.5399892 h 1.759994 1.760002 v 0.8799933 0.8800108 h -0.880002 -0.879999 v 0.8799937 0.879993 h 0.879999 0.880002 v 0.880011 0.879996 h 0.879997 0.88 V 9.2999933 5.7799969 h 0.88 0.880004 V 6.659994 7.5399892 h 1.759995 1.759999 v 0.8799933 0.8800108 h -0.879997 -0.880002 v 0.8799937 0.879993 h 0.880003 0.879996 v 0.880011 0.879996 h 0.88 0.880003 V 9.2999933 5.7799969 h 0.88 0.879998 V 6.659994 7.5399892 h 1.759999 1.760011 V 6.659994 5.7799969 H 33.059979 32.17998 V 4.0199889 2.2599867 h -1.759998 -1.759998 v 0.880006 0.8799962 h -0.880003 -0.88 V 4.899988 5.7799969 H 26.019983 25.139982 V 3.1399927 0.49999923 h 4.400001 4.400009 V 3.1399927 5.7799969 h 1.75999 1.759999 V 6.659994 7.5399892 h 1.76 1.76 V 6.659993 5.7799969 h -0.88 -0.88 V 4.899987 4.0199889 h -0.88 -0.88 V 2.2599867 0.49999923 h 1.76 1.76 V 1.3799954 2.2599867 h 0.88 0.88 V 1.3799954 0.49999923 h 0.88 0.879999 V 3.1399927 5.7799969 h -0.879999 -0.88 v 5.2799981 5.27999 h 0.88 0.879999 v 0.880006 0.879996 h -0.879999 -0.88 v 1.759989 1.760004 h 0.88 0.879999 v 0.879996 0.880008 h -3.519999 -3.52 v 0.879997 0.879995 h 0.88 0.88 v 0.880008 0.879997 h 2.64 2.639999 v 1.759987 1.760007 z m 1.76,-14.079993 h -0.88 V 12.819987 9.2999914 h -1.76 -1.76 v 0.8799956 0.880007 h 0.88 0.88 v 0.879996 0.879997 h -0.88 -0.88 v 0.879996 0.880008 h 0.88 0.88 v 1.759992 1.760003 h 1.76 1.76 v -0.880013 -0.87999 z m 0,-12.3199941 h -0.88 V 3.1399927 2.2599867 h -0.88 -0.88 v 0.880006 0.8799962 h 0.88 0.88 V 4.899987 5.7799969 h 0.88 0.88 V 4.899987 4.0199889 Z M 36.579982,26.899981 h -0.88 v 0.879994 0.879994 h 0.88 0.879999 V 27.779975 26.899981 Z M 33.059979,9.2999914 h -2.639998 v 2.6399986 2.640001 h 2.639998 2.640003 V 11.93999 9.2999914 Z m 0,3.5199956 H 32.17998 V 11.93999 11.059979 h 0.879999 0.880013 v 0.880011 0.879997 z m -5.279999,7.039988 h -0.88 v 0.880007 0.879998 h 0.88 0.880003 v -0.879998 -0.880007 z m -0.88,-5.279984 h -1.759999 v 0.879995 0.879997 h -0.879996 -0.879999 v -1.759992 -1.760004 h -0.880002 -0.880001 v 1.760004 1.759992 h 0.880001 0.880002 v 0.880007 0.879996 h 2.639998 2.639999 v -1.760003 -1.759992 z m -0.879997,12.31999 h -0.880002 v 0.879994 0.879994 h 0.880003 0.879996 v -0.879994 -0.879994 z m -1.759998,-7.040006 h -0.879999 v 0.880007 0.879998 h 0.879999 0.879996 v -0.879998 -0.880007 z m -1.760001,10.56 h -0.88 v -0.879996 -0.88001 h -0.880001 -0.879997 v 2.639999 2.640001 h 0.879997 0.880001 v -0.879998 -0.879995 h 0.880001 0.880001 v -0.880008 -0.879994 z m 0,-5.279999 h -0.880001 v 0.880007 0.879998 h 0.880001 0.880002 v -0.879998 -0.880007 z m -3.520001,14.079981 h -0.879999 v 1.759997 1.759997 h 0.879999 0.880002 v -1.759997 -1.759997 z m 0,-24.639966 h -0.879999 v 0.879995 0.879997 h 0.879999 0.880002 V 15.459986 14.579991 Z M 17.219984,35.699974 H 16.33999 v 0.879992 0.88 h 0.879994 0.88 v -0.88 -0.879992 z m 0,-3.519997 H 16.33999 v 0.879995 0.879998 h 0.879994 0.88 v -0.879998 -0.879995 z m 0,-3.520008 H 16.33999 v 0.88001 0.879997 h 0.879994 0.88 v -0.879997 -0.88001 z M 15.459982,14.579992 h -0.879993 v 0.879995 0.879997 h -1.76 -1.760003 v 0.880006 0.879996 h 0.880004 0.879999 v 0.879994 0.879996 H 11.93999 11.059986 v 0.880007 0.879997 h 1.760003 1.76 v -2.640002 -2.639996 h 0.879993 0.880008 V 15.459986 14.579991 Z M 6.6599923,25.139976 H 5.7799934 v 0.880007 0.879998 h 0.8799989 0.8800009 v -0.879998 -0.880007 z m 26.3999867,-5.28 H 32.17998 V 18.97998 18.099986 h 0.879999 0.880013 v 0.879994 0.879996 z M 29.539985,35.699974 H 28.659984 V 33.93997 32.179962 h 0.880001 0.879998 v 1.760008 1.760003 z M 22.499984,4.0199889 H 21.619983 V 2.2599867 0.49999923 h 0.880001 0.880002 V 2.2599867 4.0199889 Z m -3.520001,1.760008 H 18.099984 V 4.899987 4.0199889 h 0.879999 0.880002 V 4.899987 5.7799969 Z M 17.219984,2.2599848 H 16.33999 V 3.1399907 4.0199889 H 15.459982 14.579989 V 3.1399907 2.2599848 h 0.879993 0.880008 V 1.3799944 0.49999825 h 0.879994 0.88 V 1.3799944 2.2599848 Z M 12.794582,44.260003 c -0.03149,0.08712 -0.141302,0.192495 -0.227386,0.218279 -0.05494,0.01652 -1.47591,0.02171 -5.9209845,0.02171 H 0.79751916 l -0.0977191,-0.05104 c -0.079112,-0.04136 -0.10743038,-0.06962 -0.14875811,-0.148762 l -0.0510204,-0.09768 v -5.84869 c 0,-4.428735 0.005084,-5.86615 0.02156,-5.920626 0.027632,-0.0922 0.13936167,-0.203954 0.23159152,-0.231601 0.0544915,-0.01629 1.49190093,-0.02151 5.92063233,-0.02151 h 5.8486876 l 0.09771,0.05094 c 0.0791,0.04138 0.107427,0.06968 0.14875,0.148768 l 0.05103,0.09764 -0.0015,5.859976 c -0.0011,4.597177 -0.0062,5.873469 -0.02401,5.922534 z M 11.035183,34.053452 c -0.0128,-0.02327 -0.0477,-0.05832 -0.07728,-0.07774 -0.05276,-0.03476 -0.133507,-0.0355 -4.2942517,-0.0355 -3.7546525,-1.05e-4 -4.2466487,0.0032 -4.2942645,0.02769 -0.1180735,0.06114 -0.1094261,-0.285956 -0.1092882,4.375863 1.193e-4,4.160744 7.353e-4,4.241489 0.035542,4.29425 0.019507,0.02953 0.054511,0.06434 0.077821,0.07724 0.06249,0.03461 8.5105374,0.03461 8.5730304,0 0.02331,-0.01281 0.05832,-0.04762 0.07779,-0.07724 0.03478,-0.0528 0.03541,-0.132977 0.03489,-4.297926 -4.86e-4,-3.416781 -0.0049,-4.25241 -0.02404,-4.286508 z m -1.7605947,6.686557 c -0.031484,0.08702 -0.1412976,0.192487 -0.227387,0.218283 -0.1036357,0.03103 -4.6704518,0.03113 -4.7740571,1.03e-4 -0.092243,-0.02766 -0.2039585,-0.139364 -0.2315925,-0.23158 -0.015947,-0.05354 -0.02155,-0.669218 -0.02155,-2.400639 v -2.328684 l 0.05102,-0.0977 c 0.041341,-0.07909 0.069686,-0.107434 0.1487552,-0.148755 l 0.09769,-0.05101 2.3399881,3.64e-4 c 2.2412463,3.68e-4 2.343075,0.0017 2.4133117,0.03448 0.096301,0.04469 0.1523495,0.100256 0.1941856,0.192374 0.032785,0.07221 0.034154,0.169947 0.033176,2.412743 -7.333e-4,1.805171 -0.00616,2.351735 -0.023633,2.400046 z M 11.059987,30.419975 H 9.299989 v -0.879996 -0.88001 h 1.759998 1.760003 v 0.88001 0.879996 z m 1.734595,-17.839934 c -0.03148,0.08704 -0.141302,0.192497 -0.227386,0.218278 -0.05494,0.01651 -1.47591,0.02167 -5.9209845,0.02167 H 0.79751916 l -0.0977191,-0.05097 c -0.079112,-0.0414 -0.10743038,-0.06966 -0.14875811,-0.148747 l -0.0510204,-0.09765 V 6.6739146 c 0,-4.4287255 0.005084,-5.86615524 0.02156,-5.92062229 0.027632,-0.0921848 0.13936456,-0.20396522 0.23159148,-0.23159426 0.0544915,-0.01628 1.49190097,-0.0214818 5.92063137,-0.0214818 h 5.8486876 l 0.09771,0.0509519 c 0.07908,0.0413893 0.107428,0.0696862 0.14875,0.14873941 l 0.05104,0.0976408 -0.0015,5.85999825 c -0.0011,4.5971793 -0.0062,5.8734513 -0.02401,5.9225253 z M 11.035183,2.3734695 c -0.0128,-0.023271 -0.0477,-0.058324 -0.07728,-0.077772 -0.05276,-0.034779 -0.133507,-0.035503 -4.2942517,-0.035503 -4.6618278,-1.153e-4 -4.3147959,-0.009 -4.3758571,0.1092813 -0.02464,0.047569 -0.027798,0.5396183 -0.027691,4.2942685 1.203e-4,4.1607697 7.353e-4,4.2415097 0.035542,4.2942527 0.019507,0.02961 0.054501,0.06437 0.077802,0.07734 0.062499,0.03459 8.5105378,0.03459 8.5730328,0 0.02328,-0.01325 0.05833,-0.04774 0.07781,-0.07734 0.03474,-0.0527 0.03541,-0.132992 0.0349,-4.2979194 C 11.058708,3.2432865 11.05429,2.4076511 11.03515,2.373555 Z M 9.2745883,9.060043 C 9.2431133,9.1470847 9.1332858,9.2525193 9.0472013,9.2783248 8.9435774,9.3094377 4.3767495,9.3094377 4.2731442,9.2784421 4.1809012,9.2509177 4.0691857,9.1391217 4.0415517,9.0468479 4.0256047,8.993383 4.0200017,8.3776183 4.0200017,6.6462044 V 4.3175117 l 0.05102,-0.097651 C 4.1123627,4.1407688 4.1407077,4.1124836 4.2197759,4.071108 l 0.09769,-0.050962 2.3399901,3.549e-4 c 2.2412423,3.804e-4 2.3430798,0.00166 2.4133165,0.034467 0.096292,0.044772 0.1523486,0.1003287 0.1941838,0.1923971 0.032765,0.07216 0.034164,0.1699689 0.033186,2.4127473 -7.353e-4,1.8051823 -0.00616,2.3517488 -0.023604,2.4000588 z M 1.379996,16.339983 H 0.5 v -0.879997 -0.879995 h 0.879996 0.8800008 v 0.879995 0.879997 z"
       id="path32-4" />
  </g>
</svg>
